    <svg xmlns="http://www.w3.org/2000/svg" xmlns:xlink="http://www.w3.org/1999/xlink"
        style="margin:auto;background:#ffffff;display:block;z-index:-1;position:absolute;"
        preserveAspectRatio="xMidYMid" viewBox="0 0 1536 739">
        <g transform="translate(768,369.5) scale(1,1) translate(-768,-369.5)">
            <path id="path0" d="M 1329.9032956893216 734.9698422892413
c 0 20.93667056978703 -5.122802373458527 6.01372452536436 -11.136526898822886 6.01372452536436
S 1307.6302418916757 755.9065128590283 1307.6302418916757 734.9698422892413
s 5.122802373458527 -6.01372452536436 11.136526898822886 -6.01372452536436
S 1329.9032956893216 714.0331717194543 1329.9032956893216 734.9698422892413
z" fill="none" stroke="none"></path>
            <circle cx="0" cy="0" r="2.7107616871891556" fill="#1b75be">
                <animateMotion begin="-7.506235624673434s" dur="10s" repeatCount="indefinite">
                    <mpath xlink:href="#path0"></mpath>
                </animateMotion>
            </circle>
            <path id="path1" d="M 672.3543109370678 121.74900779230497
c 0 30.305756515486042 -7.415238296342329 8.704844956575778 -16.120083252918107 8.704844956575778
S 640.1141444312316 152.054764307791 640.1141444312316 121.74900779230497
s 7.415238296342329 -8.704844956575778 16.120083252918107 -8.704844956575778
S 672.3543109370678 91.44325127681893 672.3543109370678 121.74900779230497
z" fill="none" stroke="none"></path>
            <circle cx="0" cy="0" r="2.5011814205291114" fill="#89bff8">
                <animateMotion begin="-1.9651271611424082s" dur="10s" repeatCount="indefinite">
                    <mpath xlink:href="#path1"></mpath>
                </animateMotion>
            </circle>
            <path id="path2" d="M 645.3015681087602 726.2529922353517
c 0 21.10455897602112 -5.163881451579635 6.06194779098479 -11.225829242564425 6.06194779098479
S 622.8499096236314 747.3575512113729 622.8499096236314 726.2529922353517
s 5.163881451579635 -6.06194779098479 11.225829242564425 -6.06194779098479
S 645.3015681087602 705.1484332593305 645.3015681087602 726.2529922353517
z" fill="none" stroke="none"></path>
            <circle cx="0" cy="0" r="1.8938215401287155" fill="#e3f1ff">
                <animateMotion begin="-4.988800802825222s" dur="10s" repeatCount="indefinite">
                    <mpath xlink:href="#path2"></mpath>
                </animateMotion>
            </circle>
            <path id="path3" d="M 20.810907923802674 359.52125432663195
c 0 23.453527803984453 -5.738629143528111 6.736651603272131 -12.475280746800241 6.736651603272131
S -4.139653569797808 382.9747821306164 -4.139653569797808 359.52125432663195
s 5.738629143528111 -6.736651603272131 12.475280746800241 -6.736651603272131
S 20.810907923802674 336.0677265226475 20.810907923802674 359.52125432663195
z" fill="none" stroke="none"></path>
            <circle cx="0" cy="0" r="2.2146708577467664" fill="#e3f1ff">
                <animateMotion begin="-2.4629682634715913s" dur="10s" repeatCount="indefinite">
                    <mpath xlink:href="#path3"></mpath>
                </animateMotion>
            </circle>
            <path id="path4" d="M 1310.6195673249272 438.0216411454586
c 0 24.816712001154148 -6.0721742130483545 7.128204510969808 -13.200378724018162 7.128204510969808
S 1284.2188098768906 462.83835314661275 1284.2188098768906 438.0216411454586
s 6.0721742130483545 -7.128204510969808 13.200378724018162 -7.128204510969808
S 1310.6195673249272 413.20492914430446 1310.6195673249272 438.0216411454586
z" fill="none" stroke="none"></path>
            <circle cx="0" cy="0" r="2.0544000809874183" fill="#89bff8">
                <animateMotion begin="-4.6739704170741705s" dur="10s" repeatCount="indefinite">
                    <mpath xlink:href="#path4"></mpath>
                </animateMotion>
            </circle>
            <path id="path5" d="M 707.7809627013143 556.1025480562929
c 0 34.01294989095848 -8.322317526511116 9.769677096339137 -18.091994622850255 9.769677096339137
S 671.5969734556137 590.1154979472514 671.5969734556137 556.1025480562929
s 8.322317526511116 -9.769677096339137 18.091994622850255 -9.769677096339137
S 707.7809627013143 522.0895981653345 707.7809627013143 556.1025480562929
z" fill="none" stroke="none"></path>
            <circle cx="0" cy="0" r="1.7759376326229246" fill="#e3f1ff">
                <animateMotion begin="-2.247055872318974s" dur="10s" repeatCount="indefinite">
                    <mpath xlink:href="#path5"></mpath>
                </animateMotion>
            </circle>
            <path id="path6" d="M 1130.2371818020904 179.42390548970783
c 0 20.06922957675872 -4.910556173036707 5.764565942260483 -10.67512211529719 5.764565942260483
S 1108.886937571496 199.49313506646655 1108.886937571496 179.42390548970783
s 4.910556173036707 -5.764565942260483 10.67512211529719 -5.764565942260483
S 1130.2371818020904 159.35467591294912 1130.2371818020904 179.42390548970783
z" fill="none" stroke="none"></path>
            <circle cx="0" cy="0" r="2.386640828630216" fill="#0051a2">
                <animateMotion begin="-2.95332036582192s" dur="10s" repeatCount="indefinite">
                    <mpath xlink:href="#path6"></mpath>
                </animateMotion>
            </circle>
            <path id="path7" d="M 1436.2754722698226 88.93255148397347
c 0 26.69878165594503 -6.532680617943996 7.668798986282083 -14.20147960422608 7.668798986282083
S 1407.8725130613705 115.6313331399185 1407.8725130613705 88.93255148397347
s 6.532680617943996 -7.668798986282083 14.20147960422608 -7.668798986282083
S 1436.2754722698226 62.23376982802844 1436.2754722698226 88.93255148397347
z" fill="none" stroke="none"></path>
            <circle cx="0" cy="0" r="2.568874749444706" fill="#1b75be">
                <animateMotion begin="-8.53469713349915s" dur="10s" repeatCount="indefinite">
                    <mpath xlink:href="#path7"></mpath>
                </animateMotion>
            </circle>
            <path id="path8" d="M 91.00722311398987 660.4526974541931
c 0 31.360165485825625 -7.6732319805743545 9.007707107630765 -16.680939088205122 9.007707107630765
S 57.64534493757962 691.8128629400187 57.64534493757962 660.4526974541931
s 7.6732319805743545 -9.007707107630765 16.680939088205122 -9.007707107630765
S 91.00722311398987 629.0925319683674 91.00722311398987 660.4526974541931
z" fill="none" stroke="none"></path>
            <circle cx="0" cy="0" r="1.7533333423979607" fill="#0051a2">
                <animateMotion begin="-8.484370125733856s" dur="10s" repeatCount="indefinite">
                    <mpath xlink:href="#path8"></mpath>
                </animateMotion>
            </circle>
            <path id="path9" d="M 627.8587398414188 656.9960182744958
c 0 27.02243110091179 -6.611871439584799 7.761762124729982 -14.37363356431478 7.761762124729982
S 599.1114727127892 684.0184493754076 599.1114727127892 656.9960182744958
s 6.611871439584799 -7.761762124729982 14.37363356431478 -7.761762124729982
S 627.8587398414188 629.973587173584 627.8587398414188 656.9960182744958
z" fill="none" stroke="none"></path>
            <circle cx="0" cy="0" r="2.0195875231046974" fill="#0051a2">
                <animateMotion begin="-7.2229363734941545s" dur="10s" repeatCount="indefinite">
                    <mpath xlink:href="#path9"></mpath>
                </animateMotion>
            </circle>
            <path id="path10" d="M 225.2821105630277 479.5504071434223
c 0 35.22974718619881 -8.620044524282685 10.119182702418806 -18.73922722670149 10.119182702418806
S 187.80365610962468 514.7801543296212 187.80365610962468 479.5504071434223
s 8.620044524282685 -10.119182702418806 18.73922722670149 -10.119182702418806
S 225.2821105630277 444.3206599572235 225.2821105630277 479.5504071434223
z" fill="none" stroke="none"></path>
            <circle cx="0" cy="0" r="3.1814759212450596" fill="#0051a2">
                <animateMotion begin="-4.042938585605697s" dur="10s" repeatCount="indefinite">
                    <mpath xlink:href="#path10"></mpath>
                </animateMotion>
            </circle>
            <path id="path11" d="M 1347.5631716505052 612.5745971656745
c 0 30.03815585632235 -7.349761539312914 8.627980937454293 -15.977742476767208 8.627980937454293
S 1315.6076866969709 642.6127530219968 1315.6076866969709 612.5745971656745
s 7.349761539312914 -8.627980937454293 15.977742476767208 -8.627980937454293
S 1347.5631716505052 582.5364413093522 1347.5631716505052 612.5745971656745
z" fill="none" stroke="none"></path>
            <circle cx="0" cy="0" r="2.814966833721555" fill="#1b75be">
                <animateMotion begin="-9.696914223488179s" dur="10s" repeatCount="indefinite">
                    <mpath xlink:href="#path11"></mpath>
                </animateMotion>
            </circle>
            <path id="path12" d="M 826.7687650276846 265.75249839789893
c 0 23.596201238816406 -5.773538600986992 6.777632270723861 -12.551170871710852 6.777632270723861
S 801.6664232842629 289.3486996367153 801.6664232842629 265.75249839789893
s 5.773538600986992 -6.777632270723861 12.551170871710852 -6.777632270723861
S 826.7687650276846 242.15629715908253 826.7687650276846 265.75249839789893
z" fill="none" stroke="none"></path>
            <circle cx="0" cy="0" r="2.4828824166501313" fill="#408ee0">
                <animateMotion begin="-7.476958649422446s" dur="10s" repeatCount="indefinite">
                    <mpath xlink:href="#path12"></mpath>
                </animateMotion>
            </circle>
            <path id="path13" d="M 56.93465618042173 393.29571684009716
c 0 29.68335915355608 -7.262949580125423 8.526071246234194 -15.789020826359616 8.526071246234194
S 25.356614527702497 422.9790759936532 25.356614527702497 393.29571684009716
s 7.262949580125423 -8.526071246234194 15.789020826359616 -8.526071246234194
S 56.93465618042173 363.6123576865411 56.93465618042173 393.29571684009716
z" fill="none" stroke="none"></path>
            <circle cx="0" cy="0" r="2.6369995987379724" fill="#0051a2">
                <animateMotion begin="-3.592965457269466s" dur="10s" repeatCount="indefinite">
                    <mpath xlink:href="#path13"></mpath>
                </animateMotion>
            </circle>
            <path id="path14" d="M 1293.3774951019577 272.6641739452984
c 0 24.10128659680761 -5.89712331624016 6.922709979934101 -12.819833296174261 6.922709979934101
S 1267.7378285096092 296.765460542106 1267.7378285096092 272.6641739452984
s 5.89712331624016 -6.922709979934101 12.819833296174261 -6.922709979934101
S 1293.3774951019577 248.5628873484908 1293.3774951019577 272.6641739452984
z" fill="none" stroke="none"></path>
            <circle cx="0" cy="0" r="1.777913024667009" fill="#e3f1ff">
                <animateMotion begin="-0.3022725199613874s" dur="10s" repeatCount="indefinite">
                    <mpath xlink:href="#path14"></mpath>
                </animateMotion>
            </circle>
            <path id="path15" d="M 915.5582996206234 66.6220783404891
c 0 31.637018633103054 -7.740972644269895 9.087228756316835 -16.82820140058673 9.087228756316835
S 881.9018968194499 98.25909697359215 881.9018968194499 66.6220783404891
s 7.740972644269895 -9.087228756316835 16.82820140058673 -9.087228756316835
S 915.5582996206234 34.98505970738604 915.5582996206234 66.6220783404891
z" fill="none" stroke="none"></path>
            <circle cx="0" cy="0" r="2.5918589969204087" fill="#0051a2">
                <animateMotion begin="-8.456089913843837s" dur="10s" repeatCount="indefinite">
                    <mpath xlink:href="#path15"></mpath>
                </animateMotion>
            </circle>
            <path id="path16" d="M 472.9577227518641 545.0508107071756
c 0 21.27325031199211 -5.205156991232112 6.110401685359436 -11.315558676591548 6.110401685359436
S 450.326605398681 566.3240610191677 450.326605398681 545.0508107071756
s 5.205156991232112 -6.110401685359436 11.315558676591548 -6.110401685359436
S 472.9577227518641 523.7775603951835 472.9577227518641 545.0508107071756
z" fill="none" stroke="none"></path>
            <circle cx="0" cy="0" r="2.5672066529638395" fill="#89bff8">
                <animateMotion begin="-4.121168553811176s" dur="10s" repeatCount="indefinite">
                    <mpath xlink:href="#path16"></mpath>
                </animateMotion>
            </circle>
            <path id="path17" d="M 235.11927168142114 443.05091566383015
c 0 23.71082036997297 -5.801583707546578 6.810554787119896 -12.612138494666475 6.810554787119896
S 209.89499469208818 466.7617360338031 209.89499469208818 443.05091566383015
s 5.801583707546578 -6.810554787119896 12.612138494666475 -6.810554787119896
S 235.11927168142114 419.3400952938572 235.11927168142114 443.05091566383015
z" fill="none" stroke="none"></path>
            <circle cx="0" cy="0" r="2.8557561028626046" fill="#1b75be">
                <animateMotion begin="-0.8801279186173616s" dur="10s" repeatCount="indefinite">
                    <mpath xlink:href="#path17"></mpath>
                </animateMotion>
            </circle>
            <path id="path18" d="M 1407.1151056066826 257.280625490794
c 0 22.102378827614825 -5.408028862075967 6.3485556206978755 -11.756584482773842 6.3485556206978755
S 1383.601936641135 279.38300431840884 1383.601936641135 257.280625490794
s 5.408028862075967 -6.3485556206978755 11.756584482773842 -6.3485556206978755
S 1407.1151056066826 235.1782466631792 1407.1151056066826 257.280625490794
z" fill="none" stroke="none"></path>
            <circle cx="0" cy="0" r="3.0650976258646367" fill="#1b75be">
                <animateMotion begin="-2.6377304619980135s" dur="10s" repeatCount="indefinite">
                    <mpath xlink:href="#path18"></mpath>
                </animateMotion>
            </circle>
            <path id="path19" d="M 1069.6127073789182 508.28470851446605
c 0 21.522960562606205 -5.26625630787173 6.182126970110294 -11.448383277982025 6.182126970110294
S 1046.7159408229543 529.8076690770722 1046.7159408229543 508.28470851446605
s 5.26625630787173 -6.182126970110294 11.448383277982025 -6.182126970110294
S 1069.6127073789182 486.76174795185983 1069.6127073789182 508.28470851446605
z" fill="none" stroke="none"></path>
            <circle cx="0" cy="0" r="2.125847254977164" fill="#89bff8">
                <animateMotion begin="-7.723271332179018s" dur="10s" repeatCount="indefinite">
                    <mpath xlink:href="#path19"></mpath>
                </animateMotion>
            </circle>
            <path id="path20" d="M 962.7025736460968 89.02119861459042
c 0 31.422933196623394 -7.6885900374716805 9.025736130945017 -16.714326168416697 9.025736130945017
S 929.2739213092633 120.44413181121381 929.2739213092633 89.02119861459042
s 7.6885900374716805 -9.025736130945017 16.714326168416697 -9.025736130945017
S 962.7025736460968 57.59826541796703 962.7025736460968 89.02119861459042
z" fill="none" stroke="none"></path>
            <circle cx="0" cy="0" r="3.157606673490039" fill="#0051a2">
                <animateMotion begin="-2.1651923004679077s" dur="10s" repeatCount="indefinite">
                    <mpath xlink:href="#path20"></mpath>
                </animateMotion>
            </circle>
            <path id="path21" d="M 1332.6683334118557 562.2464347609044
c 0 21.661887028592027 -5.300248953804431 6.2220313805530285 -11.52228033435746 6.2220313805530285
S 1309.6237727431408 583.9083217894964 1309.6237727431408 562.2464347609044
s 5.300248953804431 -6.2220313805530285 11.52228033435746 -6.2220313805530285
S 1332.6683334118557 540.5845477323124 1332.6683334118557 562.2464347609044
z" fill="none" stroke="none"></path>
            <circle cx="0" cy="0" r="2.7300223406222517" fill="#1b75be">
                <animateMotion begin="-6.228516525098896s" dur="10s" repeatCount="indefinite">
                    <mpath xlink:href="#path21"></mpath>
                </animateMotion>
            </circle>
            <path id="path22" d="M 1508.796929950976 439.0446482818301
c 0 24.452965584385055 -5.983172430221875 7.023724157216984 -13.00689658743886 7.023724157216984
S 1482.7831367760982 463.49761386621515 1482.7831367760982 439.0446482818301
s 5.983172430221875 -7.023724157216984 13.00689658743886 -7.023724157216984
S 1508.796929950976 414.5916826974451 1508.796929950976 439.0446482818301
z" fill="none" stroke="none"></path>
            <circle cx="0" cy="0" r="3.1985041321264758" fill="#408ee0">
                <animateMotion begin="-0.8453539785267528s" dur="10s" repeatCount="indefinite">
                    <mpath xlink:href="#path22"></mpath>
                </animateMotion>
            </circle>
            <path id="path23" d="M 1367.2696441168753 302.0437436327223
c 0 21.27619281584029 -5.205876965577942 6.111246872634977 -11.317123838212918 6.111246872634977
S 1344.6353964404495 323.31993644856254 1344.6353964404495 302.0437436327223
s 5.205876965577942 -6.111246872634977 11.317123838212918 -6.111246872634977
S 1367.2696441168753 280.767550816882 1367.2696441168753 302.0437436327223
z" fill="none" stroke="none"></path>
            <circle cx="0" cy="0" r="2.3764186837630863" fill="#1b75be">
                <animateMotion begin="-8.751285428972878s" dur="10s" repeatCount="indefinite">
                    <mpath xlink:href="#path23"></mpath>
                </animateMotion>
            </circle>
            <path id="path24" d="M 795.4845779239547 531.0552836288082
c 0 33.476734503161985 -8.191115889071549 9.615657782823124 -17.806773671894675 9.615657782823124
S 759.8710305801653 564.5320181319702 759.8710305801653 531.0552836288082
s 8.191115889071549 -9.615657782823124 17.806773671894675 -9.615657782823124
S 795.4845779239547 497.5785491256462 795.4845779239547 531.0552836288082
z" fill="none" stroke="none"></path>
            <circle cx="0" cy="0" r="1.8951597201592105" fill="#1b75be">
                <animateMotion begin="-6.858126215046174s" dur="10s" repeatCount="indefinite">
                    <mpath xlink:href="#path24"></mpath>
                </animateMotion>
            </circle>
            <path id="path25" d="M 1203.0053937146513 603.4716399100957
c 0 18.860955590275008 -4.614914665705586 5.417508520610906 -10.032423186316493 5.417508520610906
S 1182.9405473420184 622.3325955003708 1182.9405473420184 603.4716399100957
s 4.614914665705586 -5.417508520610906 10.032423186316493 -5.417508520610906
S 1203.0053937146513 584.6106843198207 1203.0053937146513 603.4716399100957
z" fill="none" stroke="none"></path>
            <circle cx="0" cy="0" r="2.1167801832505933" fill="#0051a2">
                <animateMotion begin="-8.493424904258758s" dur="10s" repeatCount="indefinite">
                    <mpath xlink:href="#path25"></mpath>
                </animateMotion>
            </circle>
            <path id="path26" d="M 1293.0816294410317 191.87569936048536
c 0 36.147816490422365 -8.844678502975684 10.382883460014936 -19.22756196299062 10.382883460014936
S 1254.6265055150504 228.02351585090773 1254.6265055150504 191.87569936048536
s 8.844678502975684 -10.382883460014936 19.22756196299062 -10.382883460014936
S 1293.0816294410317 155.72788287006298 1293.0816294410317 191.87569936048536
z" fill="none" stroke="none"></path>
            <circle cx="0" cy="0" r="2.4103105663316984" fill="#e3f1ff">
                <animateMotion begin="-6.196761626854053s" dur="10s" repeatCount="indefinite">
                    <mpath xlink:href="#path26"></mpath>
                </animateMotion>
            </circle>
            <path id="path27" d="M 698.2887142191073 524.2536462232362
c 0 28.193416192437965 -6.89838906836248 8.098108906338565 -14.996497974701043 8.098108906338565
S 668.2957182697053 552.4470624156742 668.2957182697053 524.2536462232362
s 6.89838906836248 -8.098108906338565 14.996497974701043 -8.098108906338565
S 698.2887142191073 496.0602300307982 698.2887142191073 524.2536462232362
z" fill="none" stroke="none"></path>
            <circle cx="0" cy="0" r="2.384045589533862" fill="#e3f1ff">
                <animateMotion begin="-2.3003791467909296s" dur="10s" repeatCount="indefinite">
                    <mpath xlink:href="#path27"></mpath>
                </animateMotion>
            </circle>
            <path id="path28" d="M 913.9082780779847 107.3802036479273
c 0 20.669697174439474 -5.0574790958734885 5.93704067776453 -10.994519773638018 5.93704067776453
S 891.9192385307088 128.04990082236677 891.9192385307088 107.3802036479273
s 5.0574790958734885 -5.93704067776453 10.994519773638018 -5.93704067776453
S 913.9082780779847 86.71050647348783 913.9082780779847 107.3802036479273
z" fill="none" stroke="none"></path>
            <circle cx="0" cy="0" r="2.389994598136889" fill="#408ee0">
                <animateMotion begin="-4.5363783642121085s" dur="10s" repeatCount="indefinite">
                    <mpath xlink:href="#path28"></mpath>
                </animateMotion>
            </circle>
            <path id="path29" d="M 213.4148569274231 619.5308097314024
c 0 26.375213147462244 -6.453509599910974 7.575859095547666 -14.02936869545864 7.575859095547666
S 185.35611953650584 645.9060228788646 185.35611953650584 619.5308097314024
s 6.453509599910974 -7.575859095547666 14.02936869545864 -7.575859095547666
S 213.4148569274231 593.1555965839402 213.4148569274231 619.5308097314024
z" fill="none" stroke="none"></path>
            <circle cx="0" cy="0" r="2.841572395965002" fill="#e3f1ff">
                <animateMotion begin="-1.1631674328997565s" dur="10s" repeatCount="indefinite">
                    <mpath xlink:href="#path29"></mpath>
                </animateMotion>
            </circle>
            <path id="path30" d="M 682.4622499780166 223.568095080812
c 0 29.482854663002588 -7.213889970734675 8.468479530862446 -15.682369501597119 8.468479530862446
S 651.0975109748224 253.05094974381458 651.0975109748224 223.568095080812
s 7.213889970734675 -8.468479530862446 15.682369501597119 -8.468479530862446
S 682.4622499780166 194.0852404178094 682.4622499780166 223.568095080812
z" fill="none" stroke="none"></path>
            <circle cx="0" cy="0" r="2.4427612601089663" fill="#408ee0">
                <animateMotion begin="-0.9319088832007072s" dur="10s" repeatCount="indefinite">
                    <mpath xlink:href="#path30"></mpath>
                </animateMotion>
            </circle>
            <path id="path31" d="M 321.76637258387285 621.9888798955135
c 0 29.842956352629084 -7.301999958622009 8.5719129949041 -15.873912953526109 8.5719129949041
S 290.0185466768207 651.8318362481426 290.0185466768207 621.9888798955135
s 7.301999958622009 -8.5719129949041 15.873912953526109 -8.5719129949041
S 321.76637258387285 592.1459235428844 321.76637258387285 621.9888798955135
z" fill="none" stroke="none"></path>
            <circle cx="0" cy="0" r="3.0187952313911515" fill="#e3f1ff">
                <animateMotion begin="-1.6508684808670515s" dur="10s" repeatCount="indefinite">
                    <mpath xlink:href="#path31"></mpath>
                </animateMotion>
            </circle>
            <path id="path32" d="M 355.10669981112056 355.4545725637244
c 0 23.390023513331315 -5.723090859644896 6.718411009148356 -12.441501868793253 6.718411009148356
S 330.2236960735341 378.8445960770557 330.2236960735341 355.4545725637244
s 5.723090859644896 -6.718411009148356 12.441501868793253 -6.718411009148356
S 355.10669981112056 332.0645490503931 355.10669981112056 355.4545725637244
z" fill="none" stroke="none"></path>
            <circle cx="0" cy="0" r="2.8334095430143087" fill="#1b75be">
                <animateMotion begin="-9.401167538202094s" dur="10s" repeatCount="indefinite">
                    <mpath xlink:href="#path32"></mpath>
                </animateMotion>
            </circle>
            <path id="path33" d="M 31.666134959845174 697.3123852410463
c 0 22.520015767517485 -5.510216623967043 6.468515167265661 -11.978731791232704 6.468515167265661
S 7.7086713773797655 719.8324010085638 7.7086713773797655 697.3123852410463
s 5.510216623967043 -6.468515167265661 11.978731791232704 -6.468515167265661
S 31.666134959845174 674.7923694735288 31.666134959845174 697.3123852410463
z" fill="none" stroke="none"></path>
            <circle cx="0" cy="0" r="2.9237053960994555" fill="#0051a2">
                <animateMotion begin="-9.319681121446386s" dur="10s" repeatCount="indefinite">
                    <mpath xlink:href="#path33"></mpath>
                </animateMotion>
            </circle>
            <path id="path34" d="M 1379.1245364394274 321.3017679006152
c 0 29.19077928778221 -7.142424719350966 8.384585540107656 -15.527010259458622 8.384585540107656
S 1348.0705159205102 350.4925471883974 1348.0705159205102 321.3017679006152
s 7.142424719350966 -8.384585540107656 15.527010259458622 -8.384585540107656
S 1379.1245364394274 292.11098861283295 1379.1245364394274 321.3017679006152
z" fill="none" stroke="none"></path>
            <circle cx="0" cy="0" r="2.6973765076679945" fill="#89bff8">
                <animateMotion begin="-7.989489720058703s" dur="10s" repeatCount="indefinite">
                    <mpath xlink:href="#path34"></mpath>
                </animateMotion>
            </circle>
            <path id="path35" d="M 336.7181759257324 374.0124220011173
c 0 28.805822451971952 -7.048233153142072 8.27401283194939 -15.322245985091463 8.27401283194939
S 306.0736839555495 402.8182444530892 306.0736839555495 374.0124220011173
s 7.048233153142072 -8.27401283194939 15.322245985091463 -8.27401283194939
S 336.7181759257324 345.2065995491453 336.7181759257324 374.0124220011173
z" fill="none" stroke="none"></path>
            <circle cx="0" cy="0" r="1.7583643222157233" fill="#1b75be">
                <animateMotion begin="-1.1889367272231666s" dur="10s" repeatCount="indefinite">
                    <mpath xlink:href="#path35"></mpath>
                </animateMotion>
            </circle>
            <path id="path36" d="M 689.676131434872 16.758762830000876
c 0 25.860206004974945 -6.32749721398323 7.427931512067272 -13.755428726050503 7.427931512067272
S 662.165273982771 42.61896883497582 662.165273982771 16.758762830000876
s 6.32749721398323 -7.427931512067272 13.755428726050503 -7.427931512067272
S 689.676131434872 -9.101443174974069 689.676131434872 16.758762830000876
z" fill="none" stroke="none"></path>
            <circle cx="0" cy="0" r="2.5408755145092123" fill="#408ee0">
                <animateMotion begin="-5.3353209360106355s" dur="10s" repeatCount="indefinite">
                    <mpath xlink:href="#path36"></mpath>
                </animateMotion>
            </circle>
            <path id="path37" d="M 837.4654951015714 547.2428532062456
c 0 34.13660679227716 -8.352574002365689 9.805195567994506 -18.157769570360195 9.805195567994506
S 801.149955960851 581.3794599985227 801.149955960851 547.2428532062456
s 8.352574002365689 -9.805195567994506 18.157769570360195 -9.805195567994506
S 837.4654951015714 513.1062464139685 837.4654951015714 547.2428532062456
z" fill="none" stroke="none"></path>
            <circle cx="0" cy="0" r="3.1867824628461436" fill="#408ee0">
                <animateMotion begin="-4.858548876889013s" dur="10s" repeatCount="indefinite">
                    <mpath xlink:href="#path37"></mpath>
                </animateMotion>
            </circle>
            <path id="path38" d="M 1293.1098813529572 458.5723314092484
c 0 33.68852956010951 -8.242938083856581 9.676492533222945 -17.919430617079527 9.676492533222945
S 1257.271020118798 492.2608609693579 1257.271020118798 458.5723314092484
s 8.242938083856581 -9.676492533222945 17.919430617079527 -9.676492533222945
S 1293.1098813529572 424.88380184913893 1293.1098813529572 458.5723314092484
z" fill="none" stroke="none"></path>
            <circle cx="0" cy="0" r="2.1954841206089517" fill="#e3f1ff">
                <animateMotion begin="-5.607308627890873s" dur="10s" repeatCount="indefinite">
                    <mpath xlink:href="#path38"></mpath>
                </animateMotion>
            </circle>
        </g>
    </svg>
